<svg xmlns="http://www.w3.org/2000/svg" viewBox="0 0 476.83 377.56"><defs><style>.cls-1{fill:#51c8ec;}</style></defs><title>logo-travoz</title><g id="Layer_2" data-name="Layer 2"><g id="Layer_1-2" data-name="Layer 1"><path class="cls-1" d="M469.63,28A54.41,54.41,0,0,0,421.7,0H98.24A54.4,54.4,0,0,0,50.31,28a54.39,54.39,0,0,0,.84,55.5l40.11,66.34L4.52,171.92a6,6,0,0,0-2,10.71L56.6,220.88l28.71,59.17a6,6,0,0,0,10.15,1.05l31-40.2,32.94,21.72L212.88,351a55,55,0,0,0,94.18,0L468.79,83.5A54.39,54.39,0,0,0,469.63,28ZM145,238.72l-16.53-10.9a6,6,0,0,0-8.05,1.34L92.23,265.64l3.17-7.43,17.81-37a18.17,18.17,0,0,1,8.27-9.66l5.31-2.94,130.78-72.27-142.46,53-54,20.08-41-29,77.67-19.77L338.37,99.33,207.55,280Z"/></g></g></svg>